<?xml version="1.0" encoding="UTF-8"?>
<svg width="80px" height="88px" viewBox="0 0 80 88" version="1.1" xmlns="http://www.w3.org/2000/svg" xmlns:xlink="http://www.w3.org/1999/xlink">
    <!-- Generator: Sketch 43.2 (39069) - http://www.bohemiancoding.com/sketch -->
    <title>Shape</title>
    <desc>Created with Sketch.</desc>
    <defs></defs>
    <g id="Page-1" stroke="none" stroke-width="1" fill="none" fill-rule="evenodd">
        <g id="Styleguide" transform="translate(-562.000000, -475.000000)" fill-rule="nonzero" fill="#4A0148">
            <g id="noun_938850_cc" transform="translate(562.000000, 475.000000)">
                <g id="Group">
                    <g id="Shape">
                        <path d="M69.3333333,42.3030303 C76.6060606,34.6666667 80.969697,26.6666667 77.9393939,21.4545455 L77.9393939,21.4545455 C76.3636364,18.5454545 73.2121212,17.2121212 69.3333333,16.8484848 C68.6060606,15.030303 66.7878788,13.8181818 64.7272727,13.8181818 C62.4242424,13.8181818 60.3636364,15.3939394 59.8787879,17.5757576 C57.6969697,18.0606061 55.3939394,18.5454545 53.0909091,19.2727273 C50.1818182,8.84848485 45.4545455,0 38.4242424,0 C34.5454545,0 29.2121212,2.66666667 25.5757576,15.3939394 C25.3333333,16.1212121 25.2121212,16.8484848 24.969697,17.5757576 C14.1818182,14.9090909 4.36363636,14.9090909 1.21212121,20.3636364 C-0.484848485,23.3939394 1.75415238e-14,27.1515152 2.42424242,31.5151515 C2.06060606,32.2424242 1.81818182,32.969697 1.81818182,33.8181818 C1.81818182,36.6060606 4.12121212,38.9090909 6.90909091,38.9090909 C7.27272727,38.9090909 7.63636364,38.9090909 8,38.7878788 C8.12121212,39.030303 8.36363636,39.1515152 8.48484848,39.3939394 C9.6969697,40.6060606 11.030303,41.9393939 12.3636364,43.1515152 C4.36363636,51.030303 -1.21212121,59.7575758 2.42424242,66.0606061 C3.75757576,68.4848485 6.78787879,70.9090909 13.0909091,70.9090909 C15.5151515,70.9090909 18.5454545,70.5454545 22.1818182,69.6969697 C23.2727273,69.4545455 24.3636364,69.0909091 25.5757576,68.7272727 C28.6060606,79.3939394 33.4545455,87.8787879 39.8787879,87.8787879 C43.6363636,87.8787879 46.6666667,85.2121212 49.0909091,81.0909091 C49.3333333,81.2121212 49.6969697,81.2121212 50.0606061,81.2121212 C52.8484848,81.2121212 55.030303,78.9090909 55.030303,76.1212121 C55.030303,74.3030303 54.0606061,72.7272727 52.6060606,71.8787879 C53.2121212,70.0606061 53.6969697,68.1212121 54.0606061,66.0606061 C55.1515152,66.3030303 56.3636364,66.6666667 57.4545455,66.7878788 C60.7272727,67.5151515 63.7575758,67.7575758 66.3030303,67.7575758 C72.1212121,67.7575758 76.1212121,66.0606061 78.0606061,62.7878788 C80,59.3939394 80.3636364,53.4545455 71.1515152,44 C70.5454545,43.5151515 69.9393939,42.9090909 69.3333333,42.3030303 Z M60.6060606,21.6969697 C61.4545455,23.030303 63.030303,23.8787879 64.7272727,23.8787879 C66.7878788,23.8787879 68.4848485,22.6666667 69.2121212,20.969697 C71.7575758,21.2121212 73.5757576,22.0606061 74.3030303,23.5151515 C76.1212121,26.6666667 72.6060606,32.969697 66.1818182,39.6363636 C63.030303,36.8484848 59.2727273,34.1818182 55.3939394,31.5151515 C55.030303,28.8484848 54.5454545,26.0606061 53.9393939,23.2727273 C56.3636364,22.6666667 58.5454545,22.0606061 60.6060606,21.6969697 Z M46.6666667,54.9090909 C45.0909091,55.7575758 43.5151515,56.7272727 41.8181818,57.4545455 C38.6666667,56.1212121 35.6363636,54.5454545 32.8484848,52.969697 C30.6666667,51.7575758 28.4848485,50.3030303 26.3030303,48.8484848 C26.1818182,47.1515152 26.1818182,45.5757576 26.1818182,43.8787879 C26.1818182,41.4545455 26.3030303,39.030303 26.4242424,36.6060606 C28.7272727,35.030303 31.1515152,33.4545455 33.8181818,31.8787879 C36.3636364,30.4242424 39.030303,29.0909091 41.6969697,27.8787879 C43.1515152,28.6060606 44.6060606,29.3333333 46.0606061,30.1818182 C48,31.2727273 49.9393939,32.4848485 51.8787879,33.6969697 C52.2424242,36.969697 52.4848485,40.3636364 52.4848485,43.8787879 C52.4848485,46.3030303 52.3636364,48.7272727 52.2424242,51.2727273 C50.4242424,52.7272727 48.4848485,53.9393939 46.6666667,54.9090909 Z M51.6363636,56.7272727 C51.5151515,58.1818182 51.2727273,59.5151515 51.030303,60.969697 C49.6969697,60.4848485 48.2424242,60 46.9090909,59.5151515 C47.5151515,59.1515152 48.1212121,58.7878788 48.7272727,58.5454545 C49.6969697,57.9393939 50.6666667,57.3333333 51.6363636,56.7272727 Z M37.0909091,59.8787879 C34.1818182,61.2121212 31.2727273,62.4242424 28.3636364,63.3939394 C27.7575758,60.4848485 27.1515152,57.3333333 26.7878788,54.1818182 C28.1212121,55.030303 29.4545455,55.8787879 30.9090909,56.6060606 C32.8484848,57.8181818 34.9090909,58.9090909 37.0909091,59.8787879 Z M22.1818182,45.9393939 C20.8484848,44.969697 19.6363636,44 18.4242424,43.030303 C19.6363636,41.9393939 20.8484848,40.969697 22.1818182,39.8787879 C22.1818182,41.2121212 22.0606061,42.6666667 22.0606061,44 C22.0606061,44.7272727 22.0606061,45.3333333 22.1818182,45.9393939 Z M26.7878788,31.6363636 C27.1515152,28.4848485 27.5151515,25.5757576 28.1212121,22.6666667 C30.9090909,23.5151515 33.9393939,24.6060606 36.8484848,25.8181818 C35.030303,26.7878788 33.2121212,27.6363636 31.7575758,28.4848485 C30.1818182,29.4545455 28.6060606,30.4242424 26.7878788,31.6363636 Z M46.5454545,25.9393939 C47.8787879,25.4545455 49.0909091,24.969697 50.3030303,24.4848485 C50.5454545,25.8181818 50.9090909,27.1515152 51.1515152,28.6060606 C50.1818182,28 49.0909091,27.3939394 48.1212121,26.7878788 C47.5151515,26.5454545 47.030303,26.3030303 46.5454545,25.9393939 Z M56.2424242,36.8484848 C58.7878788,38.6666667 61.2121212,40.6060606 63.5151515,42.5454545 C61.3333333,44.6060606 59.030303,46.5454545 56.4848485,48.4848485 C56.6060606,46.9090909 56.6060606,45.4545455 56.6060606,44.2424242 C56.4848485,42.0606061 56.3636364,39.5151515 56.2424242,36.8484848 Z M38.5454545,4.24242424 C42.3030303,4.24242424 46.5454545,10.6666667 49.4545455,20.6060606 C46.7878788,21.5757576 44.2424242,22.5454545 41.8181818,23.6363636 C37.8181818,21.6969697 33.4545455,20.1212121 29.0909091,18.7878788 C31.1515152,10.1818182 34.4242424,4.24242424 38.5454545,4.24242424 Z M11.5151515,36.6060606 C11.3939394,36.4848485 11.3939394,36.4848485 11.2727273,36.3636364 C11.6363636,35.6363636 12,34.7878788 12,33.9393939 C12,31.1515152 9.6969697,28.8484848 7.03030303,28.8484848 C6.66666667,28.8484848 6.18181818,28.969697 5.81818182,28.969697 C4.36363636,26.1818182 4,23.8787879 4.84848485,22.3030303 C6.78787879,19.030303 14.6666667,18.9090909 24.2424242,21.3333333 C23.3939394,25.3333333 22.9090909,29.8181818 22.5454545,34.4242424 C20.1212121,36.2424242 17.8181818,38.1818182 15.5151515,40.1212121 C13.9393939,39.1515152 12.6060606,37.9393939 11.5151515,36.6060606 Z M5.93939394,64 C4,60.6060606 7.75757576,53.4545455 15.3939394,45.8181818 C17.5757576,47.6363636 20,49.4545455 22.4242424,51.1515152 C22.7878788,55.6363636 23.5151515,60.2424242 24.4848485,64.6060606 C15.5151515,67.3939394 8,67.7575758 5.93939394,64 Z M48.6060606,71.3939394 C46.5454545,72 45.0909091,73.9393939 45.0909091,76.1212121 C45.0909091,76.969697 45.3333333,77.8181818 45.6969697,78.5454545 C44,81.8181818 41.9393939,83.7575758 39.7575758,83.7575758 C35.8787879,83.7575758 32,76.8484848 29.3333333,67.3939394 C33.4545455,65.9393939 37.6969697,64.1212121 42.0606061,62.0606061 C44.8484848,63.1515152 47.5151515,64.1212121 50.3030303,64.969697 C49.8181818,67.2727273 49.2121212,69.4545455 48.6060606,71.3939394 Z M74.5454545,60.8484848 C72.8484848,63.8787879 66.9090909,64.6060606 58.3030303,62.9090909 C57.2121212,62.6666667 56,62.4242424 54.9090909,62.0606061 C55.3939394,59.2727273 55.7575758,56.4848485 56,53.8181818 C59.6363636,51.2727273 63.1515152,48.3636364 66.4242424,45.3333333 C72.969697,51.3939394 76.6060606,57.3333333 74.5454545,60.8484848 Z"></path>
                    </g>
                </g>
            </g>
        </g>
    </g>
</svg>