<?xml version="1.0" encoding="UTF-8"?>
<svg width="72px" height="90px" viewBox="0 0 72 90" version="1.1" xmlns="http://www.w3.org/2000/svg" xmlns:xlink="http://www.w3.org/1999/xlink">
    <!-- Generator: Sketch 43.2 (39069) - http://www.bohemiancoding.com/sketch -->
    <title>Shape</title>
    <desc>Created with Sketch.</desc>
    <defs></defs>
    <g id="Page-1" stroke="none" stroke-width="1" fill="none" fill-rule="evenodd">
        <g id="Styleguide" transform="translate(-852.000000, -476.000000)" fill-rule="nonzero" fill="#4A0148">
            <g id="noun_993123_cc" transform="translate(852.000000, 476.000000)">
                <g id="Group">
                    <path d="M58.387,49.808 C57.478,49.442 56.543,49.165 55.597,48.935 L55.597,16.746 C55.597,16.743 55.595,16.74 55.595,16.737 C55.595,16.734 55.597,16.731 55.597,16.728 C55.597,16.36 55.431,16.037 55.177,15.808 L40.483,1.008 C40.249,0.772 39.929,0.639 39.596,0.639 L4.002,0.639 C2.21,0.639 0.752,2.097 0.752,3.889 L0.752,71.819 C0.752,73.611 2.21,75.069 4.002,75.069 L31.189,75.069 C33.831,83.347 41.59,89.362 50.733,89.362 C62.046,89.362 71.249,80.16 71.249,68.848 C71.248,60.423 66.199,52.949 58.387,49.808 Z M40.775,4.851 L51.327,15.479 L40.775,15.479 L40.775,4.851 Z M30.572,72.568 L4.002,72.568 C3.589,72.568 3.252,72.231 3.252,71.818 L3.252,3.889 C3.252,3.476 3.589,3.139 4.002,3.139 L38.275,3.139 L38.275,16.729 C38.275,17.419 38.835,17.979 39.525,17.979 L53.096,17.979 L53.096,48.482 C52.315,48.392 51.529,48.333 50.732,48.333 C40.395,48.333 31.643,56.058 30.375,66.3 C30.271,67.138 30.218,67.995 30.218,68.849 C30.218,70.12 30.35,71.359 30.572,72.568 Z M50.732,86.861 C40.798,86.861 32.717,78.78 32.717,68.847 C32.717,68.096 32.764,67.342 32.855,66.606 C33.969,57.613 41.655,50.832 50.732,50.832 C53.059,50.832 55.321,51.268 57.453,52.127 C64.314,54.886 68.748,61.449 68.748,68.848 C68.748,78.78 60.666,86.861 50.732,86.861 Z M45.135,60.138 C44.633,59.665 43.843,59.688 43.367,60.189 L36.602,67.353 C36.148,67.834 36.148,68.587 36.602,69.07 L43.367,76.238 C43.613,76.498 43.944,76.63 44.276,76.63 C44.584,76.63 44.892,76.517 45.134,76.289 C45.636,75.815 45.658,75.024 45.185,74.521 L39.23,68.211 L45.185,61.905 C45.659,61.403 45.637,60.612 45.135,60.138 Z M64.005,67.356 L57.24,60.188 C56.766,59.688 55.975,59.664 55.472,60.137 C54.97,60.611 54.948,61.402 55.421,61.905 L61.376,68.215 L55.421,74.521 C54.947,75.023 54.97,75.814 55.472,76.289 C55.714,76.517 56.022,76.63 56.33,76.63 C56.662,76.63 56.993,76.498 57.239,76.238 L64.004,69.074 C64.459,68.592 64.459,67.839 64.005,67.356 Z M53.467,59.974 C52.823,59.726 52.099,60.047 51.852,60.693 L46.423,74.838 C46.176,75.483 46.497,76.206 47.142,76.453 C47.289,76.51 47.441,76.536 47.59,76.536 C48.092,76.536 48.567,76.231 48.757,75.734 L54.186,61.589 C54.433,60.944 54.111,60.221 53.467,59.974 Z M11.508,26.02 L44.841,26.02 C45.531,26.02 46.091,25.46 46.091,24.77 C46.091,24.08 45.531,23.52 44.841,23.52 L11.508,23.52 C10.818,23.52 10.258,24.08 10.258,24.77 C10.258,25.46 10.817,26.02 11.508,26.02 Z M11.508,32.854 L44.841,32.854 C45.531,32.854 46.091,32.294 46.091,31.604 C46.091,30.914 45.531,30.354 44.841,30.354 L11.508,30.354 C10.818,30.354 10.258,30.914 10.258,31.604 C10.258,32.294 10.817,32.854 11.508,32.854 Z M11.508,39.688 L44.841,39.688 C45.531,39.688 46.091,39.128 46.091,38.438 C46.091,37.748 45.531,37.188 44.841,37.188 L11.508,37.188 C10.818,37.188 10.258,37.748 10.258,38.438 C10.258,39.128 10.817,39.688 11.508,39.688 Z M11.508,46.52 L44.841,46.52 C45.531,46.52 46.091,45.96 46.091,45.27 C46.091,44.58 45.531,44.02 44.841,44.02 L11.508,44.02 C10.818,44.02 10.258,44.58 10.258,45.27 C10.258,45.96 10.817,46.52 11.508,46.52 Z M31.14,52.104 C31.14,51.414 30.58,50.854 29.89,50.854 L11.508,50.854 C10.818,50.854 10.258,51.414 10.258,52.104 C10.258,52.794 10.818,53.354 11.508,53.354 L29.89,53.354 C30.58,53.354 31.14,52.794 31.14,52.104 Z M25.14,57.688 L11.508,57.688 C10.818,57.688 10.258,58.248 10.258,58.938 C10.258,59.628 10.818,60.188 11.508,60.188 L25.14,60.188 C25.83,60.188 26.39,59.628 26.39,58.938 C26.39,58.248 25.83,57.688 25.14,57.688 Z" id="Shape"></path>
                </g>
            </g>
        </g>
    </g>
</svg>