<?xml version="1.0" encoding="UTF-8"?>
<svg width="25px" height="25px" viewBox="0 0 25 25" version="1.1" xmlns="http://www.w3.org/2000/svg" xmlns:xlink="http://www.w3.org/1999/xlink">
    <!-- Generator: Sketch 43.2 (39069) - http://www.bohemiancoding.com/sketch -->
    <title></title>
    <desc>Created with Sketch.</desc>
    <defs></defs>
    <g id="Page-1" stroke="none" stroke-width="1" fill="none" fill-rule="evenodd">
        <g id="Styleguide-Components--&gt;-Footer" transform="translate(-1196.000000, -366.000000)" fill="#FFFFFF">
            <g id="Group-3" transform="translate(509.000000, 320.000000)">
                <path d="M708.869608,67.1535904 L708.869608,57.0285904 L706.760233,57.0285904 C706.968567,57.6848437 707.072733,58.3671286 707.072733,59.0754654 C707.072733,60.387972 706.739403,61.5988974 706.072733,62.7082779 C705.406063,63.8176585 704.499822,64.6952539 703.353983,65.3410904 C702.208144,65.986927 700.958156,66.3098404 699.603983,66.3098404 C697.551889,66.3098404 695.796698,65.6041183 694.338358,64.1926529 C692.880017,62.7811875 692.150858,61.0754754 692.150858,59.0754654 C692.150858,58.3671286 692.255023,57.6848437 692.463358,57.0285904 L690.260233,57.0285904 L690.260233,67.1535904 C690.260233,67.4244251 690.351378,67.6509853 690.53367,67.8332779 C690.715963,68.0155705 690.942523,68.1067154 691.213358,68.1067154 L707.916483,68.1067154 C708.176901,68.1067154 708.400857,68.0155705 708.588358,67.8332779 C708.775859,67.6509853 708.869608,67.4244251 708.869608,67.1535904 Z M704.432108,58.8254654 C704.432108,57.5337923 703.960758,56.4322408 703.018045,55.5207779 C702.075332,54.609315 700.937323,54.1535904 699.603983,54.1535904 C698.281059,54.1535904 697.148258,54.609315 696.205545,55.5207779 C695.262832,56.4322408 694.791483,57.5337923 694.791483,58.8254654 C694.791483,60.1171386 695.262832,61.21869 696.205545,62.1301529 C697.148258,63.0416158 698.281059,63.4973404 699.603983,63.4973404 C700.937323,63.4973404 702.075332,63.0416158 703.018045,62.1301529 C703.960758,61.21869 704.432108,60.1171386 704.432108,58.8254654 Z M708.869608,53.2004654 L708.869608,50.6223404 C708.869608,50.3306723 708.765442,50.0780707 708.557108,49.8645279 C708.348773,49.6509852 708.093567,49.5442154 707.791483,49.5442154 L705.072733,49.5442154 C704.770648,49.5442154 704.515442,49.6509852 704.307108,49.8645279 C704.098773,50.0780707 703.994608,50.3306723 703.994608,50.6223404 L703.994608,53.2004654 C703.994608,53.5025503 704.098773,53.7577561 704.307108,53.9660904 C704.515442,54.1744248 704.770648,54.2785904 705.072733,54.2785904 L707.791483,54.2785904 C708.093567,54.2785904 708.348773,54.1744248 708.557108,53.9660904 C708.765442,53.7577561 708.869608,53.5025503 708.869608,53.2004654 Z M711.588358,49.9504654 L711.588358,67.7942154 C711.588358,68.6379696 711.286277,69.3619207 710.682108,69.9660904 C710.077938,70.5702601 709.353987,70.8723404 708.510233,70.8723404 L690.666483,70.8723404 C689.822728,70.8723404 689.098777,70.5702601 688.494608,69.9660904 C687.890438,69.3619207 687.588358,68.6379696 687.588358,67.7942154 L687.588358,49.9504654 C687.588358,49.1067112 687.890438,48.3827601 688.494608,47.7785904 C689.098777,47.1744207 689.822728,46.8723404 690.666483,46.8723404 L708.510233,46.8723404 C709.353987,46.8723404 710.077938,47.1744207 710.682108,47.7785904 C711.286277,48.3827601 711.588358,49.1067112 711.588358,49.9504654 Z" id=""></path>
            </g>
        </g>
    </g>
</svg>