<?xml version="1.0" encoding="UTF-8"?>
<svg width="22px" height="22px" viewBox="0 0 22 22" version="1.1" xmlns="http://www.w3.org/2000/svg" xmlns:xlink="http://www.w3.org/1999/xlink">
    <!-- Generator: Sketch 43.2 (39069) - http://www.bohemiancoding.com/sketch -->
    <title>Link Icon</title>
    <desc>Created with Sketch.</desc>
    <defs></defs>
    <g id="Page-1" stroke="none" stroke-width="1" fill="none" fill-rule="evenodd">
        <g id="Styleguide-Components--&gt;-Navigation" transform="translate(-456.000000, -163.000000)" stroke="#535353" fill="#535353">
            <g id="Link-Icon" transform="translate(457.000000, 164.000000)">
                <g id="Shape">
                    <path d="M18.7509765,7.26682377 L14.8514233,11.1337699 C14.6885253,11.2954134 14.4243889,11.2945802 14.2627407,11.1316869 C14.1002593,10.9683769 14.1010926,10.7054979 14.2644072,10.5438544 L18.1627105,6.67815808 C18.8097197,6.03200063 19.1667621,5.17129057 19.1667621,4.256005 C19.1667621,3.34113604 18.8097197,2.48042598 18.1618773,1.83343532 C16.8232807,0.497376683 14.6460301,0.497376683 13.3078501,1.83343532 L9.30539209,5.80453321 C8.65796627,6.45069066 8.30092385,7.31098411 8.30092385,8.22626968 C8.30092385,9.14155525 8.65796627,10.0014321 9.30622533,10.6488394 C9.59952505,10.9412975 10.0594724,11.2129252 10.5373343,11.3745687 C10.755226,11.4487248 10.8718793,11.684941 10.7977211,11.9024098 C10.7385612,12.0757183 10.5769131,12.1848694 10.403183,12.1848694 C10.3590214,12.1848694 10.3136099,12.1773704 10.2690317,12.1623726 C9.66785056,11.9586518 9.10166543,11.6207835 8.71712616,11.2366718 C7.91138515,10.4326203 7.46768599,9.36360678 7.46768599,8.22626968 C7.46768599,7.08851597 7.91138515,6.01908581 8.71712616,5.21545092 L12.7195842,1.24476963 C14.3823104,-0.414992639 17.0878337,-0.414992639 18.7509765,1.24518624 C19.5563008,2.04965435 20,3.11908451 20,4.256005 C20,5.39375871 19.5563008,6.46277226 18.7509765,7.26682377 Z M6.66652779,18.1706787 L11.0531085,13.8021377 C12.3854558,12.4723282 12.3854558,10.306805 11.0526919,8.97657888 C10.7048151,8.62954525 10.2973618,8.36666624 9.84158065,8.19544076 C9.62618867,8.114619 9.51745113,7.87465337 9.5982752,7.66010077 C9.67951589,7.44513156 9.91948839,7.33639713 10.1348804,7.41721889 C10.702732,7.63010507 11.2093406,7.95672495 11.6413744,8.3883298 C13.2991011,10.0435094 13.2991011,12.7352072 11.6413744,14.3908034 L7.25521034,18.7593444 C6.42655529,19.5863093 5.33793003,20 4.24972139,20 C3.16067951,20 2.07205424,19.5863093 1.24298257,18.7585112 C-0.414327525,17.1041648 -0.414327525,14.4116338 1.24298257,12.7564542 L5.53457416,8.48331619 C5.69705555,8.32125607 5.96119195,8.32125607 6.12325671,8.48414941 C6.28615471,8.64662614 6.28573809,8.91033837 6.12242347,9.07198188 L1.83208174,13.3455364 C0.499317787,14.675346 0.499317787,16.8404525 1.83249836,18.1706787 C3.16484569,19.5013214 5.33376384,19.5013214 6.66652779,18.1706787 Z" stroke-width="0.5"></path>
                </g>
            </g>
        </g>
    </g>
</svg>