<?xml version="1.0" encoding="UTF-8"?>
<svg width="248px" height="33px" viewBox="0 0 248 33" version="1.1" xmlns="http://www.w3.org/2000/svg" xmlns:xlink="http://www.w3.org/1999/xlink">
    <!-- Generator: Sketch 43.2 (39069) - http://www.bohemiancoding.com/sketch -->
    <title>natashahockey</title>
    <desc>Created with Sketch.</desc>
    <defs>
        <linearGradient x1="100%" y1="100%" x2="0%" y2="0%" id="linearGradient-1">
            <stop stop-color="#C04848" offset="0%"></stop>
            <stop stop-color="#480048" offset="100%"></stop>
        </linearGradient>
    </defs>
    <g id="Symbols" stroke="none" stroke-width="1" fill="none" fill-rule="evenodd">
        <g id="Sidebar" transform="translate(-53.000000, -65.000000)" fill="url(#linearGradient-1)">
            <g id="natashahockey">
                <path d="M53,90.0741937 L57.988583,90.0741937 L57.988583,79.2108977 C58.8747129,78.5216856 60.089039,77.8652931 61.3690044,77.8652931 C62.0582166,77.8652931 62.6489698,78.0622108 63.0756249,78.5545052 C63.4694604,79.01398 63.6335586,79.6047332 63.6335586,80.8190593 L63.6335586,90.0741937 L68.6221416,90.0741937 L68.6221416,79.9985687 C68.6221416,77.6683753 68.1954865,76.2571314 67.2108977,75.2069034 C66.1934893,74.1566754 64.6837866,73.5659222 62.9771661,73.5659222 C60.9423493,73.5659222 59.2357288,74.4192324 57.988583,75.4366408 L57.9229438,75.4038212 L57.9229438,73.9269381 L53,73.9269381 L53,90.0741937 Z M83.3402512,89.0896049 C84.2263811,90.0085544 85.5063465,90.3695703 86.8191315,90.3695703 C87.7709006,90.3695703 88.6570305,90.1726525 89.2149641,89.8772759 L89.2149641,86.1358386 C88.9524071,86.2671171 88.6570305,86.3327564 88.3944735,86.3327564 C87.7052613,86.3327564 87.4098847,85.8076424 87.4098847,85.052791 L87.4098847,79.5719136 C87.4098847,77.5370968 86.8191315,76.0930333 85.6048053,75.1084446 C84.32484,74.0582166 82.3884821,73.5659222 80.2223868,73.5659222 C77.8593738,73.5659222 75.8901963,74.1566754 74.5774113,74.8130679 L74.5774113,79.1124388 C75.8573766,78.4232267 77.4983579,77.8324735 79.3034373,77.8324735 C80.4849438,77.8324735 81.3382541,78.0950305 81.7977288,78.5216856 C82.1587447,78.8498818 82.4213017,79.4406351 82.4213017,80.2283061 L82.4213017,80.851879 C81.5351718,80.6549612 80.5834027,80.5565023 79.6316335,80.5565023 C77.9578327,80.5565023 76.349671,80.851879 75.1025253,81.7051892 C73.9538384,82.4928602 73.1333478,83.8384649 73.1333478,85.6107246 C73.1333478,87.2845255 73.8553795,88.5644909 75.036886,89.3849815 C76.087114,90.1070133 77.399899,90.4352095 78.7783233,90.4352095 C80.6162223,90.4352095 82.2243839,89.8444563 83.2746119,89.0896049 L83.3402512,89.0896049 Z M82.4213017,86.103019 C81.8305484,86.4640349 81.0100578,86.7594115 80.1567476,86.7594115 C79.0080607,86.7594115 78.0891112,86.2014779 78.0891112,85.1512499 C78.0891112,83.9041041 79.3690765,83.5102686 80.6490419,83.5102686 C81.1741559,83.5102686 81.8961877,83.5759079 82.4213017,83.740006 L82.4213017,86.103019 Z M103.768976,85.577905 C103.112583,85.9061013 102.193634,86.2342975 101.373143,86.2342975 C99.8634402,86.2342975 99.5024243,85.052791 99.5024243,83.477449 L99.5024243,78.0622108 L103.768976,78.0622108 L103.768976,73.9269381 L99.5024243,73.9269381 L99.5024243,68.8727158 L94.5138413,69.726026 L94.5138413,73.9269381 L91.8882713,73.9269381 L91.8882713,78.0622108 L94.5138413,78.0622108 L94.5138413,84.002563 C94.5138413,86.5624938 95.0717749,87.9080984 95.9250852,88.8270479 C96.9424935,89.9100955 98.4850159,90.4352095 100.125997,90.4352095 C101.537241,90.4352095 103.014124,90.041374 103.768976,89.5490796 L103.768976,85.577905 Z M117.404038,89.0896049 C118.290167,90.0085544 119.570133,90.3695703 120.882918,90.3695703 C121.834687,90.3695703 122.720817,90.1726525 123.27875,89.8772759 L123.27875,86.1358386 C123.016193,86.2671171 122.720817,86.3327564 122.45826,86.3327564 C121.769048,86.3327564 121.473671,85.8076424 121.473671,85.052791 L121.473671,79.5719136 C121.473671,77.5370968 120.882918,76.0930333 119.668592,75.1084446 C118.388626,74.0582166 116.452268,73.5659222 114.286173,73.5659222 C111.92316,73.5659222 109.953983,74.1566754 108.641198,74.8130679 L108.641198,79.1124388 C109.921163,78.4232267 111.562144,77.8324735 113.367224,77.8324735 C114.54873,77.8324735 115.40204,78.0950305 115.861515,78.5216856 C116.222531,78.8498818 116.485088,79.4406351 116.485088,80.2283061 L116.485088,80.851879 C115.598958,80.6549612 114.647189,80.5565023 113.69542,80.5565023 C112.021619,80.5565023 110.413457,80.851879 109.166312,81.7051892 C108.017625,82.4928602 107.197134,83.8384649 107.197134,85.6107246 C107.197134,87.2845255 107.919166,88.5644909 109.100672,89.3849815 C110.1509,90.1070133 111.463685,90.4352095 112.84211,90.4352095 C114.680009,90.4352095 116.28817,89.8444563 117.338398,89.0896049 L117.404038,89.0896049 Z M116.485088,86.103019 C115.894335,86.4640349 115.073844,86.7594115 114.220534,86.7594115 C113.071847,86.7594115 112.152898,86.2014779 112.152898,85.1512499 C112.152898,83.9041041 113.432863,83.5102686 114.712828,83.5102686 C115.237942,83.5102686 115.959974,83.5759079 116.485088,83.740006 L116.485088,86.103019 Z M126.903827,89.0896049 C128.840185,90.041374 131.334476,90.4352095 133.270834,90.4352095 C137.406107,90.4352095 140.491152,88.4988516 140.523971,84.9543321 C140.523971,82.164664 138.653253,80.9831575 135.568208,80.2283061 C133.172375,79.6375528 131.432935,79.7360117 131.432935,78.5545052 C131.432935,77.7996538 132.220606,77.4058183 133.533391,77.4058183 C134.977455,77.4058183 137.471746,77.9309323 139.605022,79.1452585 L139.605022,74.8458876 C137.767123,73.9597577 135.37129,73.5659222 133.434932,73.5659222 C129.430938,73.5659222 126.411532,75.5022801 126.378713,78.9155211 C126.378713,81.5739107 128.183792,82.8538761 131.236017,83.6087275 C133.66467,84.2323004 135.469749,84.1010219 135.469749,85.3481676 C135.469749,86.2342975 134.649258,86.5953134 133.270834,86.5953134 C131.728312,86.5953134 129.135561,86.0373798 126.903827,84.7245947 L126.903827,89.0896049 Z M145.067997,90.0741937 L150.05658,90.0741937 L150.05658,79.2108977 C150.94271,78.5216856 152.157036,77.8652931 153.437001,77.8652931 C154.126214,77.8652931 154.716967,78.0622108 155.143622,78.5545052 C155.537457,79.01398 155.701556,79.6047332 155.701556,80.8190593 L155.701556,90.0741937 L160.690139,90.0741937 L160.690139,79.9985687 C160.690139,77.6683753 160.263483,76.2571314 159.278895,75.2069034 C158.261486,74.1566754 156.751784,73.5659222 155.045163,73.5659222 C153.010346,73.5659222 151.303726,74.4192324 150.122219,75.4038212 L150.05658,75.3710016 L150.05658,65 L145.067997,65 L145.067997,90.0741937 Z M175.408248,89.0896049 C176.294378,90.0085544 177.574343,90.3695703 178.887128,90.3695703 C179.838898,90.3695703 180.725027,90.1726525 181.282961,89.8772759 L181.282961,86.1358386 C181.020404,86.2671171 180.725027,86.3327564 180.46247,86.3327564 C179.773258,86.3327564 179.477882,85.8076424 179.477882,85.052791 L179.477882,79.5719136 C179.477882,77.5370968 178.887128,76.0930333 177.672802,75.1084446 C176.392837,74.0582166 174.456479,73.5659222 172.290384,73.5659222 C169.927371,73.5659222 167.958193,74.1566754 166.645408,74.8130679 L166.645408,79.1124388 C167.925374,78.4232267 169.566355,77.8324735 171.371434,77.8324735 C172.552941,77.8324735 173.406251,78.0950305 173.865726,78.5216856 C174.226742,78.8498818 174.489299,79.4406351 174.489299,80.2283061 L174.489299,80.851879 C173.603169,80.6549612 172.6514,80.5565023 171.699631,80.5565023 C170.02583,80.5565023 168.417668,80.851879 167.170522,81.7051892 C166.021835,82.4928602 165.201345,83.8384649 165.201345,85.6107246 C165.201345,87.2845255 165.923376,88.5644909 167.104883,89.3849815 C168.155111,90.1070133 169.467896,90.4352095 170.84632,90.4352095 C172.684219,90.4352095 174.292381,89.8444563 175.342609,89.0896049 L175.408248,89.0896049 Z M174.489299,86.103019 C173.898545,86.4640349 173.078055,86.7594115 172.224745,86.7594115 C171.076058,86.7594115 170.157108,86.2014779 170.157108,85.1512499 C170.157108,83.9041041 171.437074,83.5102686 172.717039,83.5102686 C173.242153,83.5102686 173.964185,83.5759079 174.489299,83.740006 L174.489299,86.103019 Z M185.367512,90.0741937 L190.356095,90.0741937 L190.356095,79.2108977 C191.242225,78.5216856 192.456551,77.8652931 193.736517,77.8652931 C194.425729,77.8652931 195.016482,78.0622108 195.443137,78.5545052 C195.836973,79.01398 196.001071,79.6047332 196.001071,80.8190593 L196.001071,90.0741937 L200.989654,90.0741937 L200.989654,79.9985687 C200.989654,77.6683753 200.562999,76.2571314 199.57841,75.2069034 C198.561001,74.1566754 197.051299,73.5659222 195.344678,73.5659222 C193.309861,73.5659222 191.603241,74.4192324 190.421734,75.4038212 L190.356095,75.3710016 L190.356095,65 L185.367512,65 L185.367512,90.0741937 Z M210.522263,82.0005659 C210.522263,79.7031921 212.261703,77.8652931 214.526257,77.8652931 C216.790811,77.8652931 218.530251,79.7031921 218.530251,82.0005659 C218.530251,84.2979396 216.790811,86.1358386 214.526257,86.1358386 C212.261703,86.1358386 210.522263,84.2979396 210.522263,82.0005659 Z M205.53368,82.0005659 C205.53368,86.7594115 209.373576,90.4352095 214.526257,90.4352095 C219.678938,90.4352095 223.518834,86.7594115 223.518834,82.0005659 C223.518834,77.2417202 219.678938,73.5659222 214.526257,73.5659222 C209.373576,73.5659222 205.53368,77.2417202 205.53368,82.0005659 Z M241.420447,84.5933162 C240.074843,85.6107246 238.269763,86.2014779 236.694421,86.2014779 C234.003212,86.2014779 232.132493,84.4620377 232.132493,82.0005659 C232.132493,79.5719136 233.970392,77.7668342 236.628782,77.7668342 C238.171304,77.7668342 239.746646,78.3575875 241.19071,79.276537 L241.19071,74.6489698 C239.877925,73.9925773 238.204124,73.5659222 236.399045,73.5659222 C231.344822,73.5659222 227.14391,76.9463436 227.14391,82.0333855 C227.14391,86.89069 230.950987,90.4352095 236.136488,90.4352095 C237.974387,90.4352095 239.877925,90.041374 241.420447,89.1880638 L241.420447,84.5933162 Z M246.423948,90.0741937 L251.412531,90.0741937 L251.412531,81.8692874 L251.47817,81.8364677 L257.352883,90.0741937 L263.260416,90.0741937 L256.630851,81.1472556 L262.800941,73.9269381 L257.123146,73.9269381 L251.47817,80.7862397 L251.412531,80.7534201 L251.412531,65 L246.423948,65 L246.423948,90.0741937 Z M280.735374,83.3133509 C280.801013,82.8866957 280.833833,82.164664 280.833833,81.6067304 C280.833833,76.1914922 277.092395,73.5659222 273.121221,73.5659222 C268.657752,73.5659222 264.653757,76.9135239 264.653757,82.0662051 C264.653757,87.1204274 268.493654,90.4352095 273.810433,90.4352095 C275.943708,90.4352095 278.372361,89.9429152 279.947703,88.9583264 L279.947703,84.790234 C278.241082,85.9389209 276.271905,86.5624938 274.466825,86.5624938 C272.169452,86.5624938 270.331553,85.5450854 269.773619,83.3133509 L280.735374,83.3133509 Z M269.740799,80.1626668 C270.167454,78.3247678 271.513059,77.3729987 273.055581,77.3729987 C274.663743,77.3729987 275.943708,78.4232267 276.239085,80.1626668 L269.740799,80.1626668 Z M290.49772,97.2945112 L301,73.9269381 L296.044237,73.9269381 L294.337616,77.8324735 C293.582765,79.5719136 292.860733,81.2785341 292.138701,83.0507939 L292.073062,83.0507939 C291.416669,81.376993 290.727457,79.6703725 290.005426,77.9309323 L288.331625,73.9269381 L283.080485,73.9269381 L289.64441,88.3019339 L285.410678,97.2945112 L290.49772,97.2945112 Z"></path>
            </g>
        </g>
    </g>
</svg>