<?xml version="1.0" encoding="UTF-8"?>
<svg width="116px" height="88px" viewBox="0 0 116 88" version="1.1" xmlns="http://www.w3.org/2000/svg" xmlns:xlink="http://www.w3.org/1999/xlink">
    <!-- Generator: Sketch 43.2 (39069) - http://www.bohemiancoding.com/sketch -->
    <title>Shape</title>
    <desc>Created with Sketch.</desc>
    <defs></defs>
    <g id="Page-1" stroke="none" stroke-width="1" fill="none" fill-rule="evenodd">
        <g id="Styleguide" transform="translate(-1121.000000, -476.000000)" fill-rule="nonzero" fill="#4A0148">
            <g id="noun_995892_cc" transform="translate(1121.000000, 476.000000)">
                <g id="Group">
                    <g id="Shape">
                        <path d="M110.865133,0.585490075 L28.4196492,0.585490075 C25.7771657,0.585490075 23.4870134,2.69947684 23.4870134,5.51812587 L23.4870134,26.8341591 L5.16579474,26.8341591 C2.52331128,26.8341591 0.233158948,28.9481459 0.233158948,31.7667949 L0.233158948,82.6786429 C0.233158948,85.3211263 2.34714571,87.6112787 5.16579474,87.6112787 L40.3989075,87.6112787 C43.041391,87.6112787 45.3315433,85.4972919 45.3315433,82.6786429 L45.3315433,66.6475766 L56.9584705,66.6475766 L56.9584705,74.0465302 L50.9688414,74.0465302 L50.9688414,76.6890137 L88.3159409,76.6890137 L88.3159409,74.0465302 L82.3263117,74.0465302 L82.3263117,66.6475766 L110.688968,66.6475766 C113.331451,66.6475766 115.621603,64.5335898 115.621603,61.7149408 L115.621603,5.3419603 C115.797769,2.69947684 113.507617,0.585490075 110.865133,0.585490075 Z M26.3056624,5.3419603 C26.3056624,4.10880135 27.3626558,3.05180797 28.5958147,3.05180797 L111.041299,3.05180797 C112.274458,3.05180797 113.331451,4.10880135 113.331451,5.3419603 L113.331451,57.1346361 L45.3315433,57.1346361 L45.3315433,31.4144638 C45.3315433,28.7719803 43.2175565,26.481828 40.3989075,26.481828 L26.3056624,26.481828 L26.3056624,5.3419603 Z M5.16579474,29.300477 L40.3989075,29.300477 C41.6320665,29.300477 42.6890599,30.3574704 42.6890599,31.5906293 L42.6890599,35.4662717 L3.05180797,35.4662717 L3.05180797,31.5906293 C3.05180797,30.1813048 3.93263579,29.300477 5.16579474,29.300477 Z M42.6890599,38.1087552 L42.6890599,76.3366826 L3.05180797,76.3366826 L3.05180797,38.1087552 L42.6890599,38.1087552 Z M40.3989075,84.6164641 L5.16579474,84.6164641 C3.93263579,84.6164641 3.05180797,83.5594707 3.05180797,82.3263117 L3.05180797,78.8030005 L42.6890599,78.8030005 L42.6890599,82.3263117 C42.6890599,83.7356363 41.6320665,84.6164641 40.3989075,84.6164641 Z M79.8599938,73.6941991 L59.600954,73.6941991 L59.600954,66.2952454 L79.8599938,66.2952454 L79.8599938,73.6941991 Z M110.865133,63.8289275 L45.3315433,63.8289275 L45.3315433,59.9532851 L113.155285,59.9532851 L113.155285,61.7149408 C113.155285,62.7719341 112.098292,63.8289275 110.865133,63.8289275 Z"></path>
                    </g>
                </g>
            </g>
        </g>
    </g>
</svg>