<?xml version="1.0" encoding="UTF-8"?>
<svg width="27px" height="23px" viewBox="0 0 27 23" version="1.1" xmlns="http://www.w3.org/2000/svg" xmlns:xlink="http://www.w3.org/1999/xlink">
    <!-- Generator: Sketch 43.2 (39069) - http://www.bohemiancoding.com/sketch -->
    <title></title>
    <desc>Created with Sketch.</desc>
    <defs></defs>
    <g id="Page-1" stroke="none" stroke-width="1" fill="none" fill-rule="evenodd">
        <g id="Styleguide-Components--&gt;-Footer" transform="translate(-1151.000000, -368.000000)" fill="#FFFFFF">
            <g id="Group-3" transform="translate(509.000000, 320.000000)">
                <path d="M668.576877,51.2011778 C667.829105,52.2949333 666.925096,53.2268436 665.864823,53.9969367 C665.875984,54.1531875 665.881564,54.3875602 665.881564,54.7000617 C665.881564,56.1509619 665.669513,57.59905 665.245403,59.0443698 C664.821294,60.4896895 664.176769,61.8763944 663.31181,63.204526 C662.44685,64.5326577 661.417284,65.7073111 660.223082,66.7285216 C659.02888,67.749732 657.589162,68.564456 655.903886,69.172718 C654.218609,69.78098 652.416172,70.0851064 650.49652,70.0851064 C647.471951,70.0851064 644.704121,69.2759627 642.192948,67.657651 C642.583575,67.7022941 643.018839,67.7246153 643.498752,67.7246153 C646.009925,67.7246153 648.247626,66.9545337 650.211921,65.4143475 C649.04004,65.3920259 647.990944,65.0320965 647.0646,64.3345483 C646.138256,63.6370002 645.502102,62.7469422 645.156118,61.6643475 C645.524423,61.7201513 645.864822,61.7480528 646.177323,61.7480528 C646.657236,61.7480528 647.131562,61.6866695 647.600314,61.563901 C646.350308,61.3072033 645.315162,60.6849997 644.494845,59.6972716 C643.674529,58.7095434 643.264377,57.5627915 643.264377,56.2569814 L643.264377,56.1900171 C644.023309,56.6141264 644.838033,56.8429187 645.708573,56.876401 C644.971962,56.3853271 644.386031,55.7435925 643.950761,54.9511778 C643.515491,54.1587631 643.297859,53.2993967 643.297859,52.3730528 C643.297859,51.390905 643.543392,50.4813159 644.034466,49.6442582 C645.384919,51.3072129 647.028318,52.6381148 648.964711,53.6370037 C650.901105,54.6358926 652.974187,55.1911326 655.18402,55.3027403 C655.094733,54.878631 655.050091,54.4656887 655.050091,54.063901 C655.050091,52.5683578 655.577429,51.293259 656.632122,50.2385662 C657.686815,49.1838734 658.961914,48.656535 660.457457,48.656535 C662.019965,48.656535 663.336916,49.2257257 664.40835,50.3641242 C665.624874,50.1297481 666.768836,49.6944846 667.84027,49.0583207 C667.427321,50.3418092 666.634918,51.3351029 665.463037,52.0382314 C666.500989,51.9266237 667.538925,51.6476086 668.576877,51.2011778 Z" id=""></path>
            </g>
        </g>
    </g>
</svg>